<svg width="153" height="38" viewBox="0 0 153 38" fill="none" xmlns="http://www.w3.org/2000/svg">
<path d="M16.3996 0.0998116C6.74847 1.42667 -0.388628 9.9046 0.0164128 19.5697C0.142115 22.5866 0.784594 24.9609 2.18129 27.6566C2.90757 29.0672 3.0193 29.2069 3.60591 29.4723C4.48583 29.8773 6.41327 29.8633 7.57252 29.4443C9.8631 28.6063 12.6146 26.218 15.3102 22.7402L16.1622 21.6508L12.0978 16.483C9.8631 13.6477 7.94963 11.1896 7.83789 11.022C7.72616 10.8543 7.60046 10.3934 7.57252 9.97443C7.43285 8.49394 8.46641 7.36262 9.93293 7.34865C10.31 7.34865 10.8268 7.44642 11.0782 7.57212C11.4134 7.72576 12.6146 9.15038 15.2823 12.5304C17.3354 15.1422 19.0533 17.2233 19.1092 17.1674C19.1511 17.1115 19.626 16.4132 20.1567 15.631C22.1959 12.5443 25.0312 9.38782 27.2519 7.72576C28.4671 6.81791 30.1151 5.88212 31.3023 5.46312L32.1124 5.15584L31.1627 4.38766C28.5509 2.27866 25.967 1.02163 22.8104 0.33725C21.3439 0.0299778 17.8801 -0.109692 16.3996 0.0998116Z" fill="white"/>
<path d="M30.7019 8.95478C28.6627 9.52743 26.5397 10.9521 24.4726 13.1169C22.8804 14.779 21.6233 16.4411 19.64 19.5417C16.6372 24.2206 15.2265 26.0643 12.6286 28.6621C10.7431 30.5337 8.49443 32.1958 7.15361 32.7125C6.8184 32.8382 6.53906 33.0058 6.53906 33.0617C6.53906 33.2433 7.94972 34.3187 9.17881 35.045C16.5673 39.5284 26.0928 38.3971 32.2242 32.3215C37.5177 27.0978 39.2775 19.5138 36.8333 12.5583C36.0093 10.2397 35.5903 9.69503 34.1237 9.08049C33.3416 8.75925 31.6516 8.68941 30.7019 8.95478ZM24.724 24.5279C26.9028 27.2934 28.7884 29.7655 28.928 30.0169C29.2912 30.6454 29.1934 31.8745 28.7465 32.5449C28.2297 33.2852 27.4755 33.6483 26.5956 33.5785C26.1486 33.5366 25.6877 33.3969 25.4363 33.2153C24.9056 32.8382 17.9361 23.9972 17.9361 23.7039C17.9221 23.4664 20.506 19.5138 20.6736 19.4998C20.7295 19.4998 22.5452 21.7625 24.724 24.5279Z" fill="white"/>
<path d="M45.3281 20.0947L50.2642 12.1807L50.305 12.507L45.7361 5.20496H49.897L52.4466 9.5087H52.977L55.445 5.20496H59.4836L54.9351 12.5478L54.8739 12.2215L59.9731 20.0947H55.8121L52.773 15.179H52.2427L49.3667 20.0947H45.3281Z" fill="white"/>
<path d="M61.6144 20.0947V5.20496H65.2858V20.0947H61.6144ZM64.8779 20.0947V16.9944H71.1601V20.0947H64.8779ZM64.8779 14.0776V10.9773H70.7318V14.0776H64.8779ZM64.8779 8.30529V5.20496H71.0378V8.30529H64.8779Z" fill="white"/>
<path d="M73.6852 20.0947V5.08258H77.479V20.0947H73.6852ZM82.6598 20.0947L78.4785 13.7717H82.5986L87.0248 20.0947H82.6598ZM76.5204 15.5258V12.609H80.0898C80.5386 12.609 80.9261 12.5206 81.2524 12.3439C81.5788 12.1671 81.8304 11.9155 82.0071 11.5892C82.1975 11.2628 82.2927 10.8821 82.2927 10.447C82.2927 9.99823 82.1975 9.61069 82.0071 9.28434C81.8304 8.95799 81.5788 8.70643 81.2524 8.52965C80.9261 8.35288 80.5386 8.26449 80.0898 8.26449H76.5204V5.08258H79.8655C81.1573 5.08258 82.2723 5.27975 83.2106 5.67409C84.1488 6.05483 84.8695 6.62595 85.3726 7.38743C85.8757 8.13532 86.1273 9.06677 86.1273 10.1818V10.5082C86.1273 11.6232 85.8689 12.5546 85.3522 13.3025C84.8491 14.0368 84.1284 14.5943 83.1902 14.9751C82.2655 15.3422 81.1573 15.5258 79.8655 15.5258H76.5204Z" fill="white"/>
<path d="M92.1696 16.1377V12.8742H94.6172C95.0795 12.8742 95.4807 12.7858 95.8206 12.609C96.1606 12.4187 96.4257 12.1535 96.6161 11.8136C96.8065 11.4736 96.9016 11.0725 96.9016 10.6101C96.9016 10.1342 96.8065 9.72627 96.6161 9.38632C96.4257 9.04638 96.1606 8.78802 95.8206 8.61124C95.4807 8.43447 95.0795 8.34608 94.6172 8.34608H92.1696V5.08258H94.5152C95.7934 5.08258 96.8948 5.30015 97.8195 5.73528C98.7578 6.15682 99.4784 6.76872 99.9816 7.571C100.485 8.37328 100.736 9.33193 100.736 10.447V10.7733C100.736 11.8747 100.485 12.8266 99.9816 13.6289C99.4784 14.4312 98.7578 15.0499 97.8195 15.485C96.8948 15.9201 95.7934 16.1377 94.5152 16.1377H92.1696ZM88.7837 20.0947V5.08258H92.5775V20.0947H88.7837Z" fill="white"/>
<path d="M46.1959 31.1764V30.2196H48.0094C48.3951 30.2196 48.714 30.1454 48.9662 29.9971C49.2184 29.8413 49.4075 29.6336 49.5336 29.374C49.6671 29.1144 49.7339 28.8252 49.7339 28.5062C49.7339 28.1799 49.6671 27.8869 49.5336 27.6273C49.4075 27.3677 49.2184 27.1637 48.9662 27.0154C48.714 26.8671 48.3951 26.7929 48.0094 26.7929H46.1959V25.8361H47.8091C48.4767 25.8361 49.0329 25.9436 49.478 26.1587C49.9304 26.3664 50.2716 26.6631 50.5015 27.0488C50.7314 27.4345 50.8464 27.8906 50.8464 28.4172V28.5952C50.8464 29.1144 50.7314 29.5706 50.5015 29.9637C50.2716 30.3494 49.9304 30.6498 49.478 30.8649C49.0329 31.0725 48.4767 31.1764 47.8091 31.1764H46.1959ZM45.3281 34.0023V25.8361H46.4184V34.0023H45.3281Z" fill="white"/>
<path d="M54.7057 34.2025C54.1865 34.2025 53.7378 34.1135 53.3595 33.9355C52.9812 33.7575 52.6734 33.5239 52.4361 33.2346C52.1987 32.9379 52.0207 32.6079 51.902 32.2444C51.7908 31.881 51.7352 31.5101 51.7352 31.1319V30.9316C51.7352 30.5459 51.7908 30.1714 51.902 29.8079C52.0207 29.4445 52.1987 29.1181 52.4361 28.8289C52.6734 28.5322 52.9738 28.2986 53.3372 28.128C53.7081 27.9499 54.142 27.8609 54.6389 27.8609C55.2842 27.8609 55.8145 28.0019 56.2299 28.2837C56.6527 28.5581 56.9642 28.9142 57.1644 29.3518C57.3721 29.7894 57.4759 30.2567 57.4759 30.7536V31.232H52.2024V30.431H56.6972L56.4524 30.8649C56.4524 30.4421 56.3856 30.0786 56.2521 29.7745C56.1186 29.463 55.9184 29.222 55.6514 29.0514C55.3843 28.8808 55.0469 28.7955 54.6389 28.7955C54.2162 28.7955 53.8638 28.8919 53.582 29.0848C53.3076 29.2776 53.0999 29.5409 52.959 29.8747C52.8255 30.2084 52.7587 30.5941 52.7587 31.0317C52.7587 31.4545 52.8255 31.8365 52.959 32.1777C53.0999 32.5114 53.315 32.7784 53.6042 32.9787C53.8935 33.1716 54.2607 33.268 54.7057 33.268C55.173 33.268 55.5512 33.1641 55.8405 32.9565C56.1372 32.7488 56.3152 32.5077 56.3745 32.2333H57.3758C57.2942 32.6412 57.1311 32.9935 56.8863 33.2902C56.6415 33.5869 56.3337 33.8131 55.9629 33.9689C55.592 34.1246 55.173 34.2025 54.7057 34.2025Z" fill="white"/>
<path d="M58.9924 34.0023V28.0612H59.838V30.5088H59.7935C59.7935 29.641 59.9826 29.0069 60.3609 28.6064C60.7465 28.1984 61.3214 27.9945 62.0853 27.9945H62.2856V28.9513H61.9073C61.314 28.9513 60.8578 29.1107 60.5389 29.4297C60.2199 29.7412 60.0605 30.1936 60.0605 30.787V34.0023H58.9924Z" fill="white"/>
<path d="M65.5026 34.1803C64.7238 34.1803 64.1193 34.0134 63.6891 33.6796C63.2664 33.3459 63.0476 32.8897 63.0327 32.3112H64.034C64.0489 32.5411 64.1638 32.7599 64.3789 32.9676C64.6014 33.1678 64.976 33.268 65.5026 33.268C65.9773 33.268 66.3407 33.1753 66.5929 32.9898C66.8451 32.797 66.9712 32.5634 66.9712 32.2889C66.9712 32.0442 66.8785 31.855 66.6931 31.7215C66.5076 31.5806 66.2072 31.4879 65.7919 31.4434L65.1466 31.3766C64.5829 31.3173 64.123 31.1504 63.767 30.876C63.411 30.5941 63.233 30.201 63.233 29.6967C63.233 29.3184 63.3294 28.9958 63.5223 28.7287C63.7151 28.4543 63.9821 28.2466 64.3233 28.1057C64.6645 27.9574 65.0576 27.8832 65.5026 27.8832C66.1701 27.8832 66.7116 28.0315 67.1269 28.3282C67.5423 28.6249 67.7574 29.0662 67.7722 29.6522H66.7709C66.7635 29.4148 66.6523 29.2146 66.4372 29.0514C66.2295 28.8808 65.918 28.7955 65.5026 28.7955C65.0873 28.7955 64.772 28.8808 64.5569 29.0514C64.3418 29.222 64.2343 29.4371 64.2343 29.6967C64.2343 29.9192 64.3085 30.0972 64.4568 30.2307C64.6126 30.3642 64.8647 30.4495 65.2133 30.4866L65.8586 30.5533C66.4965 30.6201 67.0083 30.7981 67.394 31.0874C67.7796 31.3692 67.9725 31.7697 67.9725 32.2889C67.9725 32.6598 67.8649 32.9898 67.6498 33.2791C67.4422 33.5609 67.1529 33.7835 66.7821 33.9466C66.4112 34.1024 65.9847 34.1803 65.5026 34.1803Z" fill="white"/>
<path d="M72.2573 34.2025C71.7381 34.2025 71.282 34.1135 70.8889 33.9355C70.4958 33.7575 70.162 33.5239 69.8876 33.2346C69.6206 32.9379 69.4166 32.6079 69.2757 32.2444C69.1422 31.881 69.0754 31.5101 69.0754 31.1319V30.9316C69.0754 30.5533 69.1459 30.1825 69.2868 29.819C69.4277 29.4482 69.6354 29.1181 69.9098 28.8289C70.1842 28.5322 70.518 28.2986 70.9111 28.128C71.3042 27.9499 71.753 27.8609 72.2573 27.8609C72.7617 27.8609 73.2104 27.9499 73.6035 28.128C73.9966 28.2986 74.3304 28.5322 74.6048 28.8289C74.8792 29.1181 75.0869 29.4482 75.2278 29.819C75.3688 30.1825 75.4392 30.5533 75.4392 30.9316V31.1319C75.4392 31.5101 75.3688 31.881 75.2278 32.2444C75.0943 32.6079 74.8904 32.9379 74.6159 33.2346C74.3489 33.5239 74.0189 33.7575 73.6258 33.9355C73.2327 34.1135 72.7765 34.2025 72.2573 34.2025ZM72.2573 33.2457C72.7023 33.2457 73.0806 33.1493 73.3921 32.9565C73.7111 32.7562 73.9521 32.4892 74.1153 32.1554C74.2859 31.8216 74.3712 31.4471 74.3712 31.0317C74.3712 30.609 74.2859 30.2307 74.1153 29.8969C73.9447 29.5632 73.6999 29.2999 73.381 29.107C73.0695 28.9142 72.6949 28.8177 72.2573 28.8177C71.8271 28.8177 71.4526 28.9142 71.1336 29.107C70.8147 29.2999 70.5699 29.5632 70.3993 29.8969C70.2288 30.2307 70.1435 30.609 70.1435 31.0317C70.1435 31.4471 70.225 31.8216 70.3882 32.1554C70.5588 32.4892 70.7999 32.7562 71.1114 32.9565C71.4303 33.1493 71.8123 33.2457 72.2573 33.2457Z" fill="white"/>
<path d="M77.0389 34.0023V28.0612H77.8844V30.609H77.7509C77.7509 30.023 77.8288 29.5298 77.9846 29.1293C78.1477 28.7213 78.3925 28.4135 78.7188 28.2058C79.0452 27.9907 79.4568 27.8832 79.9538 27.8832H79.9983C80.7474 27.8832 81.3 28.1168 81.656 28.5841C82.0194 29.0514 82.2011 29.7263 82.2011 30.609V34.0023H81.1331V30.3864C81.1331 29.9266 81.0033 29.5594 80.7437 29.285C80.4841 29.0032 80.1281 28.8622 79.6756 28.8622C79.2084 28.8622 78.8301 29.0069 78.5408 29.2961C78.2516 29.5854 78.1069 29.9711 78.1069 30.4532V34.0023H77.0389Z" fill="white"/>
<path d="M87.7489 34.0023V32.2222H87.5709V30.1639C87.5709 29.756 87.4633 29.4482 87.2482 29.2405C87.0406 29.0328 86.7328 28.929 86.3248 28.929C86.0949 28.929 85.8575 28.9327 85.6128 28.9401C85.368 28.9475 85.1344 28.955 84.9119 28.9624C84.6894 28.9698 84.4965 28.9809 84.3333 28.9958V28.0612C84.4965 28.0464 84.6671 28.0352 84.8451 28.0278C85.0305 28.013 85.2197 28.0056 85.4125 28.0056C85.6054 27.9982 85.7908 27.9945 85.9688 27.9945C86.577 27.9945 87.0739 28.0686 87.4596 28.217C87.8453 28.3579 88.1309 28.5915 88.3163 28.9179C88.5017 29.2442 88.5944 29.6855 88.5944 30.2418V34.0023H87.7489ZM85.8019 34.158C85.3569 34.158 84.9712 34.0838 84.6449 33.9355C84.3259 33.7798 84.0774 33.5572 83.8994 33.268C83.7289 32.9787 83.6436 32.6301 83.6436 32.2222C83.6436 31.7994 83.7363 31.4471 83.9217 31.1652C84.1145 30.8834 84.3927 30.672 84.7561 30.5311C85.1195 30.3827 85.5572 30.3086 86.0689 30.3086H87.6821V31.1096H86.0244C85.5942 31.1096 85.2642 31.2135 85.0343 31.4211C84.8043 31.6288 84.6894 31.8958 84.6894 32.2222C84.6894 32.5485 84.8043 32.8118 85.0343 33.0121C85.2642 33.2123 85.5942 33.3125 86.0244 33.3125C86.2766 33.3125 86.5177 33.268 86.7476 33.179C86.9775 33.0825 87.1667 32.9268 87.315 32.7117C87.4708 32.4892 87.556 32.1851 87.5709 31.7994L87.8601 32.2222C87.8231 32.6449 87.7192 33.001 87.5486 33.2902C87.3855 33.5721 87.1555 33.7872 86.8588 33.9355C86.5696 34.0838 86.2173 34.158 85.8019 34.158Z" fill="white"/>
<path d="M90.6215 34.0023V25.8806H91.6895V34.0023H90.6215ZM89.7982 26.7261V25.8806H91.6895V26.7261H89.7982Z" fill="white"/>
<path d="M94.0274 34.0023V28.0612H95.0954V34.0023H94.0274ZM93.1151 28.9067V28.0612H95.0954V28.9067H93.1151ZM94.3278 27.1044C94.0904 27.1044 93.9124 27.0414 93.7937 26.9153C93.6825 26.7892 93.6268 26.6297 93.6268 26.4369C93.6268 26.244 93.6825 26.0846 93.7937 25.9585C93.9124 25.8324 94.0904 25.7693 94.3278 25.7693C94.5651 25.7693 94.7394 25.8324 94.8507 25.9585C94.9693 26.0846 95.0287 26.244 95.0287 26.4369C95.0287 26.6297 94.9693 26.7892 94.8507 26.9153C94.7394 27.0414 94.5651 27.1044 94.3278 27.1044Z" fill="white"/>
<path d="M99.1075 34.1803C98.3287 34.1803 97.7242 34.0134 97.294 33.6796C96.8713 33.3459 96.6525 32.8897 96.6376 32.3112H97.6389C97.6538 32.5411 97.7687 32.7599 97.9838 32.9676C98.2063 33.1678 98.5809 33.268 99.1075 33.268C99.5822 33.268 99.9456 33.1753 100.198 32.9898C100.45 32.797 100.576 32.5634 100.576 32.2889C100.576 32.0442 100.483 31.855 100.298 31.7215C100.113 31.5806 99.8121 31.4879 99.3968 31.4434L98.7515 31.3766C98.1878 31.3173 97.7279 31.1504 97.3719 30.876C97.0159 30.5941 96.8379 30.201 96.8379 29.6967C96.8379 29.3184 96.9343 28.9958 97.1271 28.7287C97.32 28.4543 97.587 28.2466 97.9282 28.1057C98.2694 27.9574 98.6625 27.8832 99.1075 27.8832C99.775 27.8832 100.316 28.0315 100.732 28.3282C101.147 28.6249 101.362 29.0662 101.377 29.6522H100.376C100.368 29.4148 100.257 29.2146 100.042 29.0514C99.8344 28.8808 99.5228 28.7955 99.1075 28.7955C98.6921 28.7955 98.3769 28.8808 98.1618 29.0514C97.9467 29.222 97.8392 29.4371 97.8392 29.6967C97.8392 29.9192 97.9133 30.0972 98.0617 30.2307C98.2174 30.3642 98.4696 30.4495 98.8182 30.4866L99.4635 30.5533C100.101 30.6201 100.613 30.7981 100.999 31.0874C101.385 31.3692 101.577 31.7697 101.577 32.2889C101.577 32.6598 101.47 32.9898 101.255 33.2791C101.047 33.5609 100.758 33.7835 100.387 33.9466C100.016 34.1024 99.5896 34.1803 99.1075 34.1803Z" fill="white"/>
<path d="M105.651 34.2025C105.132 34.2025 104.683 34.1135 104.305 33.9355C103.926 33.7575 103.619 33.5239 103.381 33.2346C103.144 32.9379 102.966 32.6079 102.847 32.2444C102.736 31.881 102.68 31.5101 102.68 31.1319V30.9316C102.68 30.5459 102.736 30.1714 102.847 29.8079C102.966 29.4445 103.144 29.1181 103.381 28.8289C103.619 28.5322 103.919 28.2986 104.282 28.128C104.653 27.9499 105.087 27.8609 105.584 27.8609C106.229 27.8609 106.76 28.0019 107.175 28.2837C107.598 28.5581 107.909 28.9142 108.11 29.3518C108.317 29.7894 108.421 30.2567 108.421 30.7536V31.232H103.148V30.431H107.642L107.398 30.8649C107.398 30.4421 107.331 30.0786 107.197 29.7745C107.064 29.463 106.863 29.222 106.596 29.0514C106.329 28.8808 105.992 28.7955 105.584 28.7955C105.161 28.7955 104.809 28.8919 104.527 29.0848C104.253 29.2776 104.045 29.5409 103.904 29.8747C103.771 30.2084 103.704 30.5941 103.704 31.0317C103.704 31.4545 103.771 31.8365 103.904 32.1777C104.045 32.5114 104.26 32.7784 104.549 32.9787C104.839 33.1716 105.206 33.268 105.651 33.268C106.118 33.268 106.496 33.1641 106.786 32.9565C107.082 32.7488 107.26 32.5077 107.32 32.2333H108.321C108.239 32.6412 108.076 32.9935 107.831 33.2902C107.587 33.5869 107.279 33.8131 106.908 33.9689C106.537 34.1246 106.118 34.2025 105.651 34.2025Z" fill="white"/>
<path d="M112.419 34.2025C111.996 34.2025 111.606 34.1246 111.25 33.9689C110.894 33.8131 110.583 33.5943 110.316 33.3125C110.056 33.0306 109.852 32.7043 109.704 32.3334C109.563 31.9626 109.493 31.5621 109.493 31.1319V30.9316C109.493 30.5088 109.563 30.112 109.704 29.7412C109.845 29.3703 110.041 29.044 110.294 28.7621C110.553 28.4803 110.857 28.2615 111.206 28.1057C111.562 27.9425 111.955 27.8609 112.385 27.8609C112.838 27.8609 113.249 27.9574 113.62 28.1502C113.991 28.3356 114.295 28.6286 114.532 29.0291C114.77 29.4297 114.903 29.9488 114.933 30.5867L114.488 29.8747V25.8806H115.556V34.0023H114.71V31.3655H115.022C114.992 32.0405 114.851 32.5893 114.599 33.0121C114.347 33.4274 114.028 33.7315 113.642 33.9244C113.264 34.1098 112.856 34.2025 112.419 34.2025ZM112.563 33.268C112.927 33.268 113.257 33.1864 113.553 33.0232C113.85 32.86 114.087 32.6264 114.265 32.3223C114.443 32.0108 114.532 31.6473 114.532 31.232V30.7202C114.532 30.3123 114.44 29.9674 114.254 29.6855C114.076 29.3963 113.835 29.1775 113.531 29.0291C113.234 28.8734 112.908 28.7955 112.552 28.7955C112.159 28.7955 111.81 28.8882 111.506 29.0736C111.21 29.2591 110.976 29.5187 110.805 29.8524C110.642 30.1862 110.561 30.5793 110.561 31.0317C110.561 31.4842 110.646 31.881 110.816 32.2222C110.987 32.5559 111.224 32.8155 111.528 33.001C111.833 33.179 112.177 33.268 112.563 33.268Z" fill="white"/>
<path d="M123.933 34.2025C123.207 34.2025 122.58 34.0727 122.053 33.8131C121.527 33.5535 121.093 33.2123 120.752 32.7896C120.41 32.3668 120.154 31.9144 119.984 31.4323C119.821 30.9501 119.739 30.4866 119.739 30.0416V29.7968C119.739 29.3147 119.824 28.8289 119.995 28.3393C120.166 27.8498 120.425 27.4048 120.774 27.0043C121.122 26.5963 121.556 26.27 122.075 26.0252C122.602 25.7805 123.221 25.6581 123.933 25.6581C124.645 25.6581 125.261 25.7805 125.78 26.0252C126.307 26.27 126.744 26.5963 127.093 27.0043C127.442 27.4048 127.701 27.8498 127.872 28.3393C128.042 28.8289 128.128 29.3147 128.128 29.7968V30.0416C128.128 30.4866 128.042 30.9501 127.872 31.4323C127.709 31.9144 127.457 32.3668 127.115 32.7896C126.774 33.2123 126.34 33.5535 125.814 33.8131C125.287 34.0727 124.66 34.2025 123.933 34.2025ZM123.933 33.2012C124.408 33.2012 124.835 33.1122 125.213 32.9342C125.599 32.7562 125.925 32.5151 126.192 32.211C126.459 31.8995 126.663 31.5509 126.804 31.1652C126.945 30.7721 127.015 30.3605 127.015 29.9303C127.015 29.4779 126.945 29.0551 126.804 28.662C126.663 28.2689 126.459 27.924 126.192 27.6273C125.925 27.3232 125.599 27.0859 125.213 26.9153C124.835 26.7447 124.408 26.6594 123.933 26.6594C123.459 26.6594 123.029 26.7447 122.643 26.9153C122.265 27.0859 121.942 27.3232 121.675 27.6273C121.408 27.924 121.204 28.2689 121.063 28.662C120.922 29.0551 120.852 29.4779 120.852 29.9303C120.852 30.3605 120.922 30.7721 121.063 31.1652C121.204 31.5509 121.408 31.8995 121.675 32.211C121.942 32.5151 122.265 32.7562 122.643 32.9342C123.029 33.1122 123.459 33.2012 123.933 33.2012Z" fill="white"/>
<path d="M129.922 34.0023V27.6273C129.922 26.9672 130.096 26.4814 130.444 26.1699C130.793 25.8583 131.305 25.7026 131.98 25.7026H132.581V26.5926H131.802C131.527 26.5926 131.316 26.6705 131.168 26.8263C131.019 26.9746 130.945 27.1823 130.945 27.4493V34.0023H129.922ZM133.738 34.0023V27.6941C133.738 27.0339 133.912 26.5481 134.261 26.2366C134.609 25.9251 135.121 25.7693 135.796 25.7693H136.463V26.6594H135.618C135.343 26.6594 135.132 26.7373 134.984 26.893C134.835 27.0414 134.761 27.249 134.761 27.5161V34.0023H133.738ZM137.821 34.0023V28.0612H138.889V34.0023H137.821ZM129.098 28.8622V28.0612H136.352V28.8622H129.098ZM136.953 28.9067V28.0612H138.889V28.9067H136.953ZM138.121 27.1044C137.884 27.1044 137.706 27.0414 137.587 26.9153C137.476 26.7892 137.42 26.6297 137.42 26.4369C137.42 26.244 137.476 26.0846 137.587 25.9585C137.706 25.8324 137.884 25.7693 138.121 25.7693C138.358 25.7693 138.533 25.8324 138.644 25.9585C138.763 26.0846 138.822 26.244 138.822 26.4369C138.822 26.6297 138.763 26.7892 138.644 26.9153C138.533 27.0414 138.358 27.1044 138.121 27.1044Z" fill="white"/>
<path d="M143.504 34.2025C142.993 34.2025 142.548 34.1135 142.169 33.9355C141.798 33.7575 141.491 33.5202 141.246 33.2235C141.001 32.9194 140.816 32.5856 140.69 32.2222C140.571 31.8587 140.512 31.4953 140.512 31.1319V30.9316C140.512 30.5533 140.571 30.1825 140.69 29.819C140.816 29.4556 141.001 29.1293 141.246 28.84C141.498 28.5433 141.81 28.306 142.18 28.128C142.551 27.9499 142.985 27.8609 143.482 27.8609C143.979 27.8609 144.424 27.9537 144.817 28.1391C145.218 28.3245 145.537 28.5878 145.774 28.929C146.019 29.2628 146.156 29.6596 146.186 30.1194H145.162C145.11 29.7486 144.94 29.4408 144.65 29.196C144.361 28.9438 143.972 28.8177 143.482 28.8177C143.059 28.8177 142.707 28.9142 142.425 29.107C142.143 29.2999 141.932 29.5632 141.791 29.8969C141.65 30.2307 141.58 30.609 141.58 31.0317C141.58 31.4397 141.65 31.8142 141.791 32.1554C141.932 32.4892 142.143 32.7562 142.425 32.9565C142.714 33.1493 143.074 33.2457 143.504 33.2457C143.838 33.2457 144.127 33.1864 144.372 33.0677C144.617 32.949 144.813 32.7896 144.962 32.5893C145.11 32.3891 145.199 32.1628 145.229 31.9107H146.252C146.23 32.3779 146.093 32.7822 145.841 33.1233C145.596 33.4645 145.27 33.7315 144.862 33.9244C144.461 34.1098 144.009 34.2025 143.504 34.2025Z" fill="white"/>
<path d="M150.229 34.2025C149.71 34.2025 149.261 34.1135 148.883 33.9355C148.505 33.7575 148.197 33.5239 147.96 33.2346C147.722 32.9379 147.544 32.6079 147.426 32.2444C147.314 31.881 147.259 31.5101 147.259 31.1319V30.9316C147.259 30.5459 147.314 30.1714 147.426 29.8079C147.544 29.4445 147.722 29.1181 147.96 28.8289C148.197 28.5322 148.497 28.2986 148.861 28.128C149.232 27.9499 149.665 27.8609 150.162 27.8609C150.808 27.8609 151.338 28.0019 151.753 28.2837C152.176 28.5581 152.488 28.9142 152.688 29.3518C152.896 29.7894 152.999 30.2567 152.999 30.7536V31.232H147.726V30.431H152.221L151.976 30.8649C151.976 30.4421 151.909 30.0786 151.776 29.7745C151.642 29.463 151.442 29.222 151.175 29.0514C150.908 28.8808 150.57 28.7955 150.162 28.7955C149.74 28.7955 149.387 28.8919 149.105 29.0848C148.831 29.2776 148.623 29.5409 148.482 29.8747C148.349 30.2084 148.282 30.5941 148.282 31.0317C148.282 31.4545 148.349 31.8365 148.482 32.1777C148.623 32.5114 148.838 32.7784 149.128 32.9787C149.417 33.1716 149.784 33.268 150.229 33.268C150.696 33.268 151.075 33.1641 151.364 32.9565C151.661 32.7488 151.839 32.5077 151.898 32.2333H152.899C152.818 32.6412 152.655 32.9935 152.41 33.2902C152.165 33.5869 151.857 33.8131 151.486 33.9689C151.115 34.1246 150.696 34.2025 150.229 34.2025Z" fill="white"/>
</svg>
